<svg width="17" height="11" viewBox="0 0 17 11" fill="none" xmlns="http://www.w3.org/2000/svg">
<mask id="path-1-outside-1_11_64" maskUnits="userSpaceOnUse" x="0.00755932" y="0.00296827" width="17.0166" height="11.0256" fill="black">
<rect fill="white" x="0.00755932" y="0.00296827" width="17.0166" height="11.0256"/>
<path d="M13.2206 2.34287L15.0096 4.32957L9.04954 9.69659L7.70554 9.69456L1.82565 4.30969L3.65264 2.32844L8.38154 7.03958L13.2206 2.34287Z"/>
</mask>
<path d="M13.2206 2.34287L15.0096 4.32957L9.04954 9.69659L7.70554 9.69456L1.82565 4.30969L3.65264 2.32844L8.38154 7.03958L13.2206 2.34287Z" fill="#8BA145" fill-opacity="0.4"/>
<path d="M13.2206 2.34287L13.9637 1.6737L13.2691 0.90228L12.5242 1.62529L13.2206 2.34287ZM15.0096 4.32957L15.6788 5.07268L16.4219 4.40351L15.7528 3.6604L15.0096 4.32957ZM9.04954 9.69659L9.04803 10.6966L9.43279 10.6972L9.71871 10.4397L9.04954 9.69659ZM7.70554 9.69456L7.03016 10.432L7.31618 10.694L7.70403 10.6946L7.70554 9.69456ZM1.82565 4.30969L1.09051 3.63178L0.410268 4.36945L1.15027 5.04716L1.82565 4.30969ZM3.65264 2.32844L4.35842 1.62001L3.62209 0.886449L2.9175 1.65053L3.65264 2.32844ZM8.38154 7.03958L7.67577 7.74801L8.37239 8.44202L9.07802 7.75716L8.38154 7.03958ZM12.4775 3.01204L14.2665 4.99874L15.7528 3.6604L13.9637 1.6737L12.4775 3.01204ZM14.3405 3.58646L8.38037 8.95348L9.71871 10.4397L15.6788 5.07268L14.3405 3.58646ZM9.05105 8.69659L7.70705 8.69456L7.70403 10.6946L9.04803 10.6966L9.05105 8.69659ZM8.38092 8.95709L2.50103 3.57222L1.15027 5.04716L7.03016 10.432L8.38092 8.95709ZM2.5608 4.9876L4.38779 3.00635L2.9175 1.65053L1.09051 3.63178L2.5608 4.9876ZM2.94687 3.03688L7.67577 7.74801L9.08732 6.33114L4.35842 1.62001L2.94687 3.03688ZM9.07802 7.75716L13.9171 3.06045L12.5242 1.62529L7.68507 6.32199L9.07802 7.75716Z" fill="#8BA145" fill-opacity="0.4" mask="url(#path-1-outside-1_11_64)"/>
</svg>
