<svg width="319" height="40" viewBox="0 0 319 40" fill="none" xmlns="http://www.w3.org/2000/svg">
<path d="M0.902344 2.52539H25.4766V7.41211H6.47461V14.6016H22.6113V19.1895H6.47461V30H0.902344V2.52539ZM30.3457 0.837891H35.5488V30H30.3457V0.837891ZM44.707 32.6016C45.2461 32.9531 45.832 33.2637 46.4648 33.5332C47.0977 33.8027 47.7539 34.0254 48.4336 34.2012C49.125 34.377 49.8281 34.5059 50.543 34.5879C51.2578 34.6816 51.9668 34.7285 52.6699 34.7285C55.0605 34.7285 56.9004 34.2129 58.1895 33.1816C59.4902 32.1621 60.1406 30.627 60.1406 28.5762V27.873C59.6836 28.1895 59.168 28.4824 58.5938 28.752C58.0312 29.0098 57.4219 29.2324 56.7656 29.4199C56.1211 29.6074 55.4355 29.7539 54.709 29.8594C53.9941 29.9531 53.2676 30 52.5293 30C50.9473 30 49.5293 29.7715 48.2754 29.3145C47.0332 28.8457 45.9785 28.166 45.1113 27.2754C44.2559 26.373 43.5996 25.2656 43.1426 23.9531C42.6855 22.6406 42.457 21.1406 42.457 19.4531V9.25781H47.6426V18.0117C47.6426 20.5195 48.1172 22.3711 49.0664 23.5664C50.0273 24.75 51.5391 25.3418 53.6016 25.3418C55.0547 25.3418 56.3379 25.0898 57.4512 24.5859C58.5762 24.0703 59.4727 23.4141 60.1406 22.6172V9.25781H65.3438V27.627C65.3438 29.6074 65.0625 31.3242 64.5 32.7773C63.9375 34.2422 63.1172 35.4551 62.0391 36.416C60.9727 37.377 59.6602 38.0918 58.1016 38.5605C56.543 39.041 54.7734 39.2812 52.793 39.2812C50.8594 39.2812 49.0547 39.0762 47.3789 38.666C45.7031 38.2559 44.168 37.6992 42.7734 36.9961L44.707 32.6016ZM82.0781 13.582H71.4434V9.25781H91.7285L78.9316 25.6758H91.0254V30H69.3691L82.0781 13.582ZM95.0684 23.4609C95.0684 22.4648 95.2852 21.5566 95.7188 20.7363C96.1523 19.916 96.8027 19.2129 97.6699 18.627C98.5371 18.0293 99.6152 17.5723 100.904 17.2559C102.205 16.9277 103.717 16.7637 105.439 16.7637C106.717 16.7637 108.059 16.8574 109.465 17.0449C110.883 17.2324 112.342 17.5195 113.842 17.9062C113.783 17.25 113.584 16.6465 113.244 16.0957C112.904 15.5332 112.43 15.0527 111.82 14.6543C111.223 14.2441 110.496 13.9277 109.641 13.7051C108.797 13.4824 107.836 13.3711 106.758 13.3711C106.172 13.3711 105.527 13.4062 104.824 13.4766C104.121 13.5469 103.395 13.6523 102.645 13.793C101.895 13.9336 101.15 14.1094 100.412 14.3203C99.6855 14.5312 99.0059 14.7832 98.373 15.0762L96.791 10.8047C97.5762 10.5234 98.4141 10.2656 99.3047 10.0312C100.207 9.79688 101.127 9.59766 102.064 9.43359C103.002 9.25781 103.939 9.12305 104.877 9.0293C105.814 8.93555 106.723 8.88867 107.602 8.88867C111.48 8.88867 114.363 9.87891 116.25 11.8594C118.137 13.8398 119.08 16.875 119.08 20.9648V30H113.877V28.0488C113.338 28.3652 112.746 28.6641 112.102 28.9453C111.469 29.2266 110.777 29.4727 110.027 29.6836C109.277 29.8945 108.469 30.0586 107.602 30.1758C106.746 30.3047 105.838 30.3691 104.877 30.3691C103.26 30.3691 101.836 30.1934 100.605 29.8418C99.3867 29.4902 98.3672 29.0039 97.5469 28.3828C96.7266 27.7617 96.1055 27.0352 95.6836 26.2031C95.2734 25.3594 95.0684 24.4453 95.0684 23.4609ZM100.553 23.2852C100.553 23.625 100.641 23.9531 100.816 24.2695C100.992 24.5742 101.273 24.8496 101.66 25.0957C102.047 25.3301 102.539 25.5234 103.137 25.6758C103.746 25.8164 104.479 25.8867 105.334 25.8867C106.248 25.8867 107.133 25.8047 107.988 25.6406C108.844 25.4766 109.641 25.2598 110.379 24.9902C111.117 24.7207 111.785 24.4102 112.383 24.0586C112.98 23.707 113.479 23.3438 113.877 22.9688V22.0547C113.08 21.832 112.289 21.6445 111.504 21.4922C110.73 21.3398 109.986 21.2227 109.271 21.1406C108.568 21.0469 107.9 20.9824 107.268 20.9473C106.646 20.9121 106.102 20.8945 105.633 20.8945C104.66 20.8945 103.852 20.959 103.207 21.0879C102.562 21.2168 102.041 21.3926 101.643 21.6152C101.244 21.8262 100.963 22.0781 100.799 22.3711C100.635 22.6641 100.553 22.9688 100.553 23.2852ZM147.943 2.52539H153.85L167.139 30H161.285L159.088 25.377H143.039L140.912 30H135.041L147.943 2.52539ZM156.891 20.7891L150.949 8.30859L145.166 20.7891H156.891ZM173.502 6.42773C172.986 6.42773 172.518 6.35742 172.096 6.2168C171.686 6.06445 171.334 5.86523 171.041 5.61914C170.748 5.36133 170.52 5.06836 170.355 4.74023C170.203 4.40039 170.127 4.04297 170.127 3.66797C170.127 3.28125 170.203 2.92383 170.355 2.5957C170.52 2.25586 170.748 1.96289 171.041 1.7168C171.334 1.4707 171.686 1.27734 172.096 1.13672C172.518 0.984375 172.986 0.908203 173.502 0.908203C174.029 0.908203 174.498 0.984375 174.908 1.13672C175.33 1.27734 175.688 1.4707 175.98 1.7168C176.273 1.96289 176.496 2.25586 176.648 2.5957C176.812 2.92383 176.895 3.28125 176.895 3.66797C176.895 4.04297 176.812 4.40039 176.648 4.74023C176.496 5.06836 176.273 5.36133 175.98 5.61914C175.688 5.86523 175.33 6.06445 174.908 6.2168C174.498 6.35742 174.029 6.42773 173.502 6.42773ZM170.9 9.25781H176.104V30H170.9V9.25781ZM182.783 9.25781H187.986V12.2461C189.135 11.3906 190.348 10.6523 191.625 10.0312C192.902 9.41016 194.174 8.93555 195.439 8.60742L196.969 13.3711C194.965 13.5703 193.201 14.0215 191.678 14.7246C190.166 15.416 188.936 16.3945 187.986 17.6602V30H182.783V9.25781ZM197.988 9.24023H204.018L209.414 21.7207L210.996 25.2188L212.93 20.6836L207.797 9.24023H212.859L215.373 15.3926L217.887 9.24023H222.949L217.799 20.6836L219.75 25.2188L221.332 21.7207L226.729 9.24023H232.758L222.932 30H217.271L215.373 25.9922L213.475 30H207.814L197.988 9.24023ZM235.412 23.4609C235.412 22.4648 235.629 21.5566 236.062 20.7363C236.496 19.916 237.146 19.2129 238.014 18.627C238.881 18.0293 239.959 17.5723 241.248 17.2559C242.549 16.9277 244.061 16.7637 245.783 16.7637C247.061 16.7637 248.402 16.8574 249.809 17.0449C251.227 17.2324 252.686 17.5195 254.186 17.9062C254.127 17.25 253.928 16.6465 253.588 16.0957C253.248 15.5332 252.773 15.0527 252.164 14.6543C251.566 14.2441 250.84 13.9277 249.984 13.7051C249.141 13.4824 248.18 13.3711 247.102 13.3711C246.516 13.3711 245.871 13.4062 245.168 13.4766C244.465 13.5469 243.738 13.6523 242.988 13.793C242.238 13.9336 241.494 14.1094 240.756 14.3203C240.029 14.5312 239.35 14.7832 238.717 15.0762L237.135 10.8047C237.92 10.5234 238.758 10.2656 239.648 10.0312C240.551 9.79688 241.471 9.59766 242.408 9.43359C243.346 9.25781 244.283 9.12305 245.221 9.0293C246.158 8.93555 247.066 8.88867 247.945 8.88867C251.824 8.88867 254.707 9.87891 256.594 11.8594C258.48 13.8398 259.424 16.875 259.424 20.9648V30H254.221V28.0488C253.682 28.3652 253.09 28.6641 252.445 28.9453C251.812 29.2266 251.121 29.4727 250.371 29.6836C249.621 29.8945 248.812 30.0586 247.945 30.1758C247.09 30.3047 246.182 30.3691 245.221 30.3691C243.604 30.3691 242.18 30.1934 240.949 29.8418C239.73 29.4902 238.711 29.0039 237.891 28.3828C237.07 27.7617 236.449 27.0352 236.027 26.2031C235.617 25.3594 235.412 24.4453 235.412 23.4609ZM240.896 23.2852C240.896 23.625 240.984 23.9531 241.16 24.2695C241.336 24.5742 241.617 24.8496 242.004 25.0957C242.391 25.3301 242.883 25.5234 243.48 25.6758C244.09 25.8164 244.822 25.8867 245.678 25.8867C246.592 25.8867 247.477 25.8047 248.332 25.6406C249.188 25.4766 249.984 25.2598 250.723 24.9902C251.461 24.7207 252.129 24.4102 252.727 24.0586C253.324 23.707 253.822 23.3438 254.221 22.9688V22.0547C253.424 21.832 252.633 21.6445 251.848 21.4922C251.074 21.3398 250.33 21.2227 249.615 21.1406C248.912 21.0469 248.244 20.9824 247.611 20.9473C246.99 20.9121 246.445 20.8945 245.977 20.8945C245.004 20.8945 244.195 20.959 243.551 21.0879C242.906 21.2168 242.385 21.3926 241.986 21.6152C241.588 21.8262 241.307 22.0781 241.143 22.3711C240.979 22.6641 240.896 22.9688 240.896 23.2852ZM268.793 32.6016C269.332 32.9531 269.918 33.2637 270.551 33.5332C271.184 33.8027 271.84 34.0254 272.52 34.2012C273.211 34.377 273.914 34.5059 274.629 34.5879C275.344 34.6816 276.053 34.7285 276.756 34.7285C279.146 34.7285 280.986 34.2129 282.275 33.1816C283.576 32.1621 284.227 30.627 284.227 28.5762V27.873C283.77 28.1895 283.254 28.4824 282.68 28.752C282.117 29.0098 281.508 29.2324 280.852 29.4199C280.207 29.6074 279.521 29.7539 278.795 29.8594C278.08 29.9531 277.354 30 276.615 30C275.033 30 273.615 29.7715 272.361 29.3145C271.119 28.8457 270.064 28.166 269.197 27.2754C268.342 26.373 267.686 25.2656 267.229 23.9531C266.771 22.6406 266.543 21.1406 266.543 19.4531V9.25781H271.729V18.0117C271.729 20.5195 272.203 22.3711 273.152 23.5664C274.113 24.75 275.625 25.3418 277.688 25.3418C279.141 25.3418 280.424 25.0898 281.537 24.5859C282.662 24.0703 283.559 23.4141 284.227 22.6172V9.25781H289.43V27.627C289.43 29.6074 289.148 31.3242 288.586 32.7773C288.023 34.2422 287.203 35.4551 286.125 36.416C285.059 37.377 283.746 38.0918 282.188 38.5605C280.629 39.041 278.859 39.2812 276.879 39.2812C274.945 39.2812 273.141 39.0762 271.465 38.666C269.789 38.2559 268.254 37.6992 266.859 36.9961L268.793 32.6016ZM296.988 23.6367C298.395 24.4805 299.941 25.1016 301.629 25.5C303.316 25.8984 305.045 26.0977 306.814 26.0977C308.01 26.0977 309.006 26.0156 309.803 25.8516C310.6 25.6875 311.238 25.4766 311.719 25.2188C312.199 24.9609 312.539 24.668 312.738 24.3398C312.938 24.0117 313.037 23.6777 313.037 23.3379C313.037 22.8457 312.82 22.4238 312.387 22.0723C311.965 21.7207 311.262 21.5449 310.277 21.5449C309.82 21.5449 309.328 21.5742 308.801 21.6328C308.273 21.6914 307.717 21.7559 307.131 21.8262C306.557 21.8848 305.953 21.9434 305.32 22.002C304.699 22.0605 304.066 22.0898 303.422 22.0898C302.016 22.0898 300.814 21.9375 299.818 21.6328C298.834 21.3281 298.031 20.9121 297.41 20.3848C296.789 19.8574 296.338 19.2363 296.057 18.5215C295.775 17.7949 295.635 17.0156 295.635 16.1836C295.635 15.1289 295.881 14.1562 296.373 13.2656C296.865 12.375 297.568 11.6074 298.482 10.9629C299.396 10.3066 300.498 9.79688 301.787 9.43359C303.088 9.07031 304.535 8.88867 306.129 8.88867C306.961 8.88867 307.828 8.94141 308.73 9.04688C309.645 9.14062 310.541 9.26953 311.42 9.43359C312.299 9.59766 313.143 9.79102 313.951 10.0137C314.76 10.2246 315.475 10.4531 316.096 10.6992L314.461 14.7422C313.137 14.25 311.812 13.8633 310.488 13.582C309.176 13.2891 307.822 13.1426 306.428 13.1426C305.455 13.1426 304.629 13.2188 303.949 13.3711C303.281 13.5117 302.736 13.7051 302.314 13.9512C301.893 14.1855 301.582 14.4609 301.383 14.7773C301.195 15.082 301.102 15.4043 301.102 15.7441C301.102 15.9902 301.148 16.2129 301.242 16.4121C301.348 16.6113 301.512 16.7871 301.734 16.9395C301.969 17.0801 302.268 17.1914 302.631 17.2734C303.006 17.3438 303.463 17.3789 304.002 17.3789C304.494 17.3789 305.016 17.3496 305.566 17.291C306.117 17.2324 306.691 17.1738 307.289 17.1152C307.887 17.0449 308.502 16.9805 309.135 16.9219C309.779 16.8633 310.436 16.834 311.104 16.834C312.346 16.834 313.43 16.9805 314.355 17.2734C315.293 17.5664 316.066 17.9766 316.676 18.5039C317.285 19.0312 317.742 19.6523 318.047 20.3672C318.352 21.082 318.504 21.8613 318.504 22.7051C318.504 23.7949 318.252 24.8086 317.748 25.7461C317.244 26.6836 316.494 27.498 315.498 28.1895C314.502 28.8691 313.26 29.4023 311.771 29.7891C310.295 30.1758 308.584 30.3691 306.639 30.3691C305.443 30.3691 304.289 30.293 303.176 30.1406C302.062 30 301.002 29.8066 299.994 29.5605C298.986 29.3027 298.037 29.0039 297.146 28.6641C296.268 28.3242 295.465 27.9609 294.738 27.5742L296.988 23.6367Z" fill="white"/>
</svg>
