<svg width="20" height="21" viewBox="0 0 20 21" fill="none" xmlns="http://www.w3.org/2000/svg">
<mask id="path-1-outside-1_11_219" maskUnits="userSpaceOnUse" x="0.016606" y="-0.00302557" width="20.0316" height="21.0301" fill="black">
<rect fill="white" x="0.016606" y="-0.00302557" width="20.0316" height="21.0301"/>
<path d="M4.54168 1.71575L10.1312 8.66819L15.6776 1.79654L17.7229 3.59163L11.7925 10.4627L17.4786 17.0633L15.2356 19.0119L10.0937 12.3481L5.02782 18.8685L2.88657 17.0413L8.43231 10.5856L2.36289 3.56847L4.54168 1.71575Z"/>
</mask>
<path d="M4.54168 1.71575L10.1312 8.66819L15.6776 1.79654L17.7229 3.59163L11.7925 10.4627L17.4786 17.0633L15.2356 19.0119L10.0937 12.3481L5.02782 18.8685L2.88657 17.0413L8.43231 10.5856L2.36289 3.56847L4.54168 1.71575Z" fill="#8BA145" fill-opacity="0.4"/>
<path d="M4.54168 1.71575L5.32104 1.08917L4.67697 0.288053L3.89388 0.95394L4.54168 1.71575ZM10.1312 8.66819L9.35185 9.29477L10.1297 10.2622L10.9094 9.29626L10.1312 8.66819ZM15.6776 1.79654L16.3372 1.04496L15.554 0.357528L14.8994 1.16847L15.6776 1.79654ZM17.7229 3.59163L18.4799 4.24501L19.1279 3.49424L18.3825 2.84005L17.7229 3.59163ZM11.7925 10.4627L11.0355 9.80931L10.4721 10.4621L11.0349 11.1154L11.7925 10.4627ZM17.4786 17.0633L18.1344 17.8182L18.8861 17.1651L18.2362 16.4106L17.4786 17.0633ZM15.2356 19.0119L14.4439 19.6228L15.0914 20.4619L15.8915 19.7668L15.2356 19.0119ZM10.0937 12.3481L10.8854 11.7372L10.0964 10.7147L9.30398 11.7346L10.0937 12.3481ZM5.02782 18.8685L4.37869 19.6292L5.17514 20.3088L5.8175 19.482L5.02782 18.8685ZM2.88657 17.0413L2.12803 16.3896L1.47426 17.1507L2.23745 17.802L2.88657 17.0413ZM8.43231 10.5856L9.19085 11.2373L9.75255 10.5834L9.18865 9.93144L8.43231 10.5856ZM2.36289 3.56847L1.71509 2.80666L0.946841 3.45993L1.60655 4.22265L2.36289 3.56847ZM3.76232 2.34233L9.35185 9.29477L10.9106 8.04161L5.32104 1.08917L3.76232 2.34233ZM10.9094 9.29626L16.4557 2.42462L14.8994 1.16847L9.35306 8.04011L10.9094 9.29626ZM15.0179 2.54812L17.0632 4.34321L18.3825 2.84005L16.3372 1.04496L15.0179 2.54812ZM16.9658 2.93824L11.0355 9.80931L12.5495 11.1161L18.4799 4.24501L16.9658 2.93824ZM11.0349 11.1154L16.7209 17.7159L18.2362 16.4106L12.5501 9.81003L11.0349 11.1154ZM16.8227 16.3084L14.5798 18.257L15.8915 19.7668L18.1344 17.8182L16.8227 16.3084ZM16.0273 18.401L10.8854 11.7372L9.30195 12.959L14.4439 19.6228L16.0273 18.401ZM9.30398 11.7346L4.23814 18.255L5.8175 19.482L10.8833 12.9617L9.30398 11.7346ZM5.67695 18.1078L3.5357 16.2806L2.23745 17.802L4.37869 19.6292L5.67695 18.1078ZM3.64511 17.6929L9.19085 11.2373L7.67377 9.934L2.12803 16.3896L3.64511 17.6929ZM9.18865 9.93144L3.11922 2.91428L1.60655 4.22265L7.67598 11.2398L9.18865 9.93144ZM3.01069 4.33028L5.18948 2.47756L3.89388 0.95394L1.71509 2.80666L3.01069 4.33028Z" fill="#8BA145" fill-opacity="0.4" mask="url(#path-1-outside-1_11_219)"/>
</svg>
